<svg xmlns="http://www.w3.org/2000/svg" viewBox="0 0 400 200" fill="none">
  <rect width="400" height="200" fill="#1a1a2e"/>
  <rect x="20" y="30" width="100" height="140" rx="8" fill="#2a2a4a" stroke="#3a3a5a" stroke-width="1"/>
  <rect x="140" y="30" width="100" height="140" rx="8" fill="#2a2a4a" stroke="#3a3a5a" stroke-width="1"/>
  <rect x="260" y="30" width="100" height="140" rx="8" fill="#2a2a4a" stroke="#3a3a5a" stroke-width="1"/>
  <rect x="30" y="50" width="80" height="60" rx="4" fill="#4a4a6a"/>
  <rect x="150" y="50" width="80" height="60" rx="4" fill="#4a4a6a"/>
  <rect x="270" y="50" width="80" height="60" rx="4" fill="#6366f1" opacity="0.3"/>
  <rect x="30" y="120" width="50" height="8" rx="2" fill="#6a6a8a"/>
  <rect x="150" y="120" width="50" height="8" rx="2" fill="#6a6a8a"/>
  <rect x="270" y="120" width="60" height="8" rx="2" fill="#6366f1" opacity="0.5"/>
  <rect x="30" y="138" width="70" height="6" rx="2" fill="#5a5a7a"/>
  <rect x="150" y="138" width="70" height="6" rx="2" fill="#5a5a7a"/>
  <rect x="270" y="138" width="80" height="6" rx="2" fill="#6366f1" opacity="0.3"/>
  <circle cx="200" cy="95" r="30" stroke="#6366f1" stroke-width="2" opacity="0.4"/>
  <circle cx="200" cy="95" r="15" stroke="#6366f1" stroke-width="1.5" opacity="0.6"/>
  <circle cx="200" cy="95" r="3" fill="#6366f1" opacity="0.8"/>
  <text x="200" y="175" text-anchor="middle" fill="#7a7a9a" font-family="system-ui" font-size="11" opacity="0.7">
    Studio Shia — Booking System
  </text>
</svg>